<?xml version="1.0" standalone="no"?>
<svg xmlns="http://www.w3.org/2000/svg" xmlns:xlink="http://www.w3.org/1999/xlink" width="559pt" height="817pt" viewBox="0.00 0.00 558.88 817.00">
<g id="graph0" class="graph" transform="translate(83.37263299399271,740.2411138902775) scale(0.757858283255199)" data-name="G">

<polygon fill="#2e3e56" stroke="none" points="-4,4 -4,-813 554.88,-813 554.88,4 -4,4" style=""/>
<g id="clust1" class="cluster" data-name="clusterMINVestingBase">

<path fill="#445773" stroke="#445773" d="M20,-93C20,-93 530.88,-93 530.88,-93 536.88,-93 542.88,-99 542.88,-105 542.88,-105 542.88,-652 542.88,-652 542.88,-658 536.88,-664 530.88,-664 530.88,-664 20,-664 20,-664 14,-664 8,-658 8,-652 8,-652 8,-105 8,-105 8,-99 14,-93 20,-93" style=""/>
<text text-anchor="middle" x="275.44" y="-647.4" font-family="Times,serif" font-size="14.00" fill="#f0f0f0" style="">MINVestingBase</text>
</g>
<g id="clust2" class="cluster" data-name="clusterSafeERC20">

<path fill="#3b4b63" stroke="#e8726d" stroke-dasharray="5,2" d="M361.82,-8C361.82,-8 472.4,-8 472.4,-8 478.4,-8 484.4,-14 484.4,-20 484.4,-20 484.4,-73 484.4,-73 484.4,-79 478.4,-85 472.4,-85 472.4,-85 361.82,-85 361.82,-85 355.82,-85 349.82,-79 349.82,-73 349.82,-73 349.82,-20 349.82,-20 349.82,-14 355.82,-8 361.82,-8" style=""/>
<text text-anchor="middle" x="417.11" y="-68.4" font-family="Times,serif" font-size="14.00" fill="#f0f0f0" style="">SafeERC20</text>
</g>
<g id="clust3" class="cluster" data-name="cluster_01">

<polygon fill="#2e3e56" stroke="black" points="66.67,-672 66.67,-801 452.11,-801 452.11,-672 66.67,-672" style=""/>
<text text-anchor="middle" x="259.39" y="-784.4" font-family="Times,serif" font-size="14.00" style="">Legend</text>
</g>
<!-- MINVestingBase.onlyBeneficiary -->
<g id="node1" class="node" pointer-events="visible" data-name="MINVestingBase.onlyBeneficiary">

<polygon fill="#edad56" stroke="#1bc6a6" stroke-width="3" points="218.74,-601.54 218.74,-616.46 172.42,-627 106.92,-627 60.6,-616.46 60.6,-601.54 106.92,-591 172.42,-591 218.74,-601.54" style=""/>
<polygon fill="none" stroke="#1bc6a6" stroke-width="3" points="222.73,-598.35 222.73,-619.65 172.87,-631 106.47,-631 56.61,-619.65 56.61,-598.35 106.47,-587 172.87,-587 222.73,-598.35" style=""/>
<text text-anchor="middle" x="139.67" y="-604.8" font-family="Times,serif" font-size="14.00" style="">onlyBeneficiary</text>
</g>
<!-- MINVestingBase.&lt;Constructor&gt; -->
<g id="node2" class="node" pointer-events="visible" data-name="MINVestingBase.&lt;Constructor&gt;">

<ellipse fill="#ff9797" stroke="#ff9797" stroke-width="3" cx="139.67" cy="-551" rx="67.55" ry="18" style=""/>
<text text-anchor="middle" x="139.67" y="-546.8" font-family="Times,serif" font-size="14.00" style="">&lt;Constructor&gt;</text>
</g>
<!-- MINVestingBase.release -->
<g id="node3" class="node" pointer-events="visible" data-name="MINVestingBase.release">

<ellipse fill="#ff9797" stroke="#ff9797" stroke-width="3" cx="139.67" cy="-497" rx="37.68" ry="18" style=""/>
<text text-anchor="middle" x="139.67" y="-492.8" font-family="Times,serif" font-size="14.00" style="">release</text>
</g>
<!-- MINVestingBase.computeReleasableAmount -->
<g id="node4" class="node" pointer-events="visible" data-name="MINVestingBase.computeReleasableAmount">

<ellipse fill="#edad56" stroke="#edad56" stroke-width="3" cx="417.11" cy="-497" rx="117.54" ry="18" style=""/>
<text text-anchor="middle" x="417.11" y="-492.8" font-family="Times,serif" font-size="14.00" style="">computeReleasableAmount</text>
</g>
<!-- MINVestingBase.release&#45;&gt;MINVestingBase.computeReleasableAmount -->
<g id="edge1" class="edge" data-name="MINVestingBase.release-&gt;MINVestingBase.computeReleasableAmount">

<path fill="none" stroke="#1bc6a6" stroke-width="2" d="M178.68,-497C206.58,-497 246.26,-497 285.21,-497" style=""/>
<polygon fill="#1bc6a6" stroke="#1bc6a6" stroke-width="2" points="285.06,-500.5 295.06,-497 285.06,-493.5 285.06,-500.5" style=""/>
</g>
<!-- SafeERC20.safeTransfer -->
<g id="node12" class="node" pointer-events="visible" data-name="SafeERC20.safeTransfer">

<ellipse fill="#edad56" stroke="#edad56" stroke-width="3" cx="417.11" cy="-34" rx="59.08" ry="18" style=""/>
<text text-anchor="middle" x="417.11" y="-29.8" font-family="Times,serif" font-size="14.00" style="">safeTransfer</text>
</g>
<!-- MINVestingBase.release&#45;&gt;SafeERC20.safeTransfer -->
<g id="edge2" class="edge" data-name="MINVestingBase.release-&gt;SafeERC20.safeTransfer">

<path fill="none" stroke="white" stroke-width="2" d="M178.33,-499.53C206.07,-499.16 242.47,-493.6 263.34,-470 319.69,-406.3 250.46,-158.59 299.34,-89 312.59,-70.15 334.03,-57.57 354.95,-49.26" style=""/>
<polygon fill="white" stroke="white" stroke-width="2" points="356.08,-52.57 364.29,-45.88 353.7,-45.99 356.08,-52.57" style=""/>
</g>
<!-- MINVestingBase.getTotalReleasedAmount -->
<g id="node5" class="node" pointer-events="visible" data-name="MINVestingBase.getTotalReleasedAmount">

<ellipse fill="#ff9797" stroke="#ff9797" stroke-width="3" cx="139.67" cy="-443" rx="109.95" ry="18" style=""/>
<text text-anchor="middle" x="139.67" y="-438.8" font-family="Times,serif" font-size="14.00" style="">getTotalReleasedAmount</text>
</g>
<!-- MINVestingBase.getTotalReservedAmount -->
<g id="node6" class="node" pointer-events="visible" data-name="MINVestingBase.getTotalReservedAmount">

<ellipse fill="#ff9797" stroke="#ff9797" stroke-width="3" cx="139.67" cy="-389" rx="110.6" ry="18" style=""/>
<text text-anchor="middle" x="139.67" y="-384.8" font-family="Times,serif" font-size="14.00" style="">getTotalReservedAmount</text>
</g>
<!-- MINVestingBase.getToken -->
<g id="node7" class="node" pointer-events="visible" data-name="MINVestingBase.getToken">

<ellipse fill="#ff9797" stroke="#ff9797" stroke-width="3" cx="139.67" cy="-335" rx="47.51" ry="18" style=""/>
<text text-anchor="middle" x="139.67" y="-330.8" font-family="Times,serif" font-size="14.00" style="">getToken</text>
</g>
<!-- MINVestingBase.getVestingSchedule -->
<g id="node8" class="node" pointer-events="visible" data-name="MINVestingBase.getVestingSchedule">

<ellipse fill="#ff9797" stroke="#ff9797" stroke-width="3" cx="139.67" cy="-281" rx="88.05" ry="18" style=""/>
<text text-anchor="middle" x="139.67" y="-276.8" font-family="Times,serif" font-size="14.00" style="">getVestingSchedule</text>
</g>
<!-- MINVestingBase._setVestingSchedule -->
<g id="node9" class="node" pointer-events="visible" data-name="MINVestingBase._setVestingSchedule">

<ellipse fill="#f2c383" stroke="#f2c383" stroke-width="3" cx="139.67" cy="-227" rx="92.06" ry="18" style=""/>
<text text-anchor="middle" x="139.67" y="-222.8" font-family="Times,serif" font-size="14.00" style="">_setVestingSchedule</text>
</g>
<!-- MINVestingBase._removeVestingSchedule -->
<g id="node10" class="node" pointer-events="visible" data-name="MINVestingBase._removeVestingSchedule">

<ellipse fill="#f2c383" stroke="#f2c383" stroke-width="3" cx="139.67" cy="-173" rx="110.02" ry="18" style=""/>
<text text-anchor="middle" x="139.67" y="-168.8" font-family="Times,serif" font-size="14.00" style="">_removeVestingSchedule</text>
</g>
<!-- MINVestingBase.addToTotalReservedAmount -->
<g id="node11" class="node" pointer-events="visible" data-name="MINVestingBase.addToTotalReservedAmount">

<ellipse fill="#f2c383" stroke="#f2c383" stroke-width="3" cx="139.67" cy="-119" rx="123.84" ry="18" style=""/>
<text text-anchor="middle" x="139.67" y="-114.8" font-family="Times,serif" font-size="14.00" style="">addToTotalReservedAmount</text>
</g>
<!-- key -->
<g id="node13" class="node" pointer-events="visible" data-name="key">

<polygon fill="#edad56" stroke="none" stroke-width="3" points="204.67,-768 74.67,-768 74.67,-680 204.67,-680 204.67,-768" style=""/>
<text text-anchor="start" x="124.31" y="-749.4" font-family="Times,serif" font-size="14.00" style="">Internal Call</text>
<text text-anchor="start" x="120.42" y="-729.4" font-family="Times,serif" font-size="14.00" style="">External Call</text>
<text text-anchor="start" x="97.87" y="-709.4" font-family="Times,serif" font-size="14.00" style="">Defined Contract</text>
<text text-anchor="start" x="84.27" y="-689.4" font-family="Times,serif" font-size="14.00" style="">Undefined Contract</text>
</g>
<!-- key2 -->
<g id="node14" class="node" pointer-events="visible" data-name="key2">

<polygon fill="#edad56" stroke="none" stroke-width="3" points="444.11,-768 390.11,-768 390.11,-680 444.11,-680 444.11,-768" style=""/>
<text text-anchor="start" x="407.11" y="-749.4" font-family="Times,serif" font-size="14.00" style="">   </text>
<text text-anchor="start" x="407.11" y="-729.4" font-family="Times,serif" font-size="14.00" style="">   </text>
<polygon fill="#445773" stroke="none" points="405.11,-704 405.11,-724 430.11,-724 430.11,-704 405.11,-704" style=""/>
<text text-anchor="start" x="407.11" y="-709.4" font-family="Times,serif" font-size="14.00" style="">   </text>
<polygon fill="none" stroke="#e8726d" points="407.11,-686 407.11,-702 428.11,-702 428.11,-686 407.11,-686" style=""/>
</g>
<!-- key&#45;&gt;key2 -->
<g id="edge3" class="edge" data-name="key-&gt;key2">

<path fill="none" stroke="#1bc6a6" stroke-width="2" d="M197.67,-754C284.94,-754 309.95,-754 391.15,-754" style=""/>
<polygon fill="#1bc6a6" stroke="#1bc6a6" stroke-width="2" points="391.08,-757.5 401.08,-754 391.08,-750.5 391.08,-757.5" style=""/>
</g>
<!-- key&#45;&gt;key2 -->
<g id="edge4" class="edge" data-name="key-&gt;key2">

<path fill="none" stroke="white" stroke-width="2" d="M197.67,-734C284.94,-734 309.95,-734 391.15,-734" style=""/>
<polygon fill="white" stroke="white" stroke-width="2" points="391.08,-737.5 401.08,-734 391.08,-730.5 391.08,-737.5" style=""/>
</g>
</g>
</svg>