<?xml version="1.0" standalone="no"?>
<svg xmlns="http://www.w3.org/2000/svg" xmlns:xlink="http://www.w3.org/1999/xlink" width="786pt" height="871pt" viewBox="0.00 0.00 786.42 871.00">
<g id="graph0" class="graph" transform="translate(4,867) scale(1)" data-name="G">

<polygon fill="#2e3e56" stroke="none" points="-4,4 -4,-867 782.42,-867 782.42,4 -4,4" style=""/>
<g id="clust1" class="cluster" data-name="clusterMINVestingBase">

<path fill="#445773" stroke="#445773" d="M20,-93C20,-93 758.42,-93 758.42,-93 764.42,-93 770.42,-99 770.42,-105 770.42,-105 770.42,-706 770.42,-706 770.42,-712 764.42,-718 758.42,-718 758.42,-718 20,-718 20,-718 14,-718 8,-712 8,-706 8,-706 8,-105 8,-105 8,-99 14,-93 20,-93" style=""/>
<text text-anchor="middle" x="389.21" y="-701.4" font-family="Times,serif" font-size="14.00" fill="#f0f0f0" style="">MINVestingBase</text>
</g>
<g id="clust2" class="cluster" data-name="clusterSafeERC20">

<path fill="#3b4b63" stroke="#e8726d" stroke-dasharray="5,2" d="M407.94,-8C407.94,-8 518.51,-8 518.51,-8 524.51,-8 530.51,-14 530.51,-20 530.51,-20 530.51,-73 530.51,-73 530.51,-79 524.51,-85 518.51,-85 518.51,-85 407.94,-85 407.94,-85 401.94,-85 395.94,-79 395.94,-73 395.94,-73 395.94,-20 395.94,-20 395.94,-14 401.94,-8 407.94,-8" style=""/>
<text text-anchor="middle" x="463.23" y="-68.4" font-family="Times,serif" font-size="14.00" fill="#f0f0f0" style="">SafeERC20</text>
</g>
<g id="clust3" class="cluster" data-name="cluster_01">

<polygon fill="#2e3e56" stroke="black" points="89.73,-726 89.73,-855 498.23,-855 498.23,-726 89.73,-726" style=""/>
<text text-anchor="middle" x="293.98" y="-838.4" font-family="Times,serif" font-size="14.00" style="">Legend</text>
</g>
<!-- MINVestingBase.onlyBeneficiary -->
<g id="node1" class="node" pointer-events="visible" data-name="MINVestingBase.onlyBeneficiary">

<polygon fill="#edad56" stroke="#1bc6a6" stroke-width="3" points="241.8,-655.54 241.8,-670.46 195.48,-681 129.98,-681 83.66,-670.46 83.66,-655.54 129.98,-645 195.48,-645 241.8,-655.54" style=""/>
<polygon fill="none" stroke="#1bc6a6" stroke-width="3" points="245.79,-652.35 245.79,-673.65 195.93,-685 129.53,-685 79.67,-673.65 79.67,-652.35 129.53,-641 195.93,-641 245.79,-652.35" style=""/>
<text text-anchor="middle" x="162.73" y="-658.8" font-family="Times,serif" font-size="14.00" style="">onlyBeneficiary</text>
</g>
<!-- MINVestingBase.&lt;Constructor&gt; -->
<g id="node2" class="node" pointer-events="visible" data-name="MINVestingBase.&lt;Constructor&gt;">

<ellipse fill="#ff9797" stroke="#ff9797" stroke-width="3" cx="162.73" cy="-605" rx="67.55" ry="18" style=""/>
<text text-anchor="middle" x="162.73" y="-600.8" font-family="Times,serif" font-size="14.00" style="">&lt;Constructor&gt;</text>
</g>
<!-- MINVestingBase.getVestingScheduleForBeneficiary -->
<g id="node3" class="node" pointer-events="visible" data-name="MINVestingBase.getVestingScheduleForBeneficiary">

<ellipse fill="#ff9797" stroke="#ff9797" stroke-width="3" cx="162.73" cy="-551" rx="146.96" ry="18" style=""/>
<text text-anchor="middle" x="162.73" y="-546.8" font-family="Times,serif" font-size="14.00" style="">getVestingScheduleForBeneficiary</text>
</g>
<!-- MINVestingBase.release -->
<g id="node4" class="node" pointer-events="visible" data-name="MINVestingBase.release">

<ellipse fill="#ff9797" stroke="#ff9797" stroke-width="3" cx="162.73" cy="-497" rx="37.68" ry="18" style=""/>
<text text-anchor="middle" x="162.73" y="-492.8" font-family="Times,serif" font-size="14.00" style="">release</text>
</g>
<!-- MINVestingBase.computeReleasableAmount -->
<g id="node5" class="node" pointer-events="visible" data-name="MINVestingBase.computeReleasableAmount">

<ellipse fill="#edad56" stroke="#edad56" stroke-width="3" cx="463.23" cy="-497" rx="117.54" ry="18" style=""/>
<text text-anchor="middle" x="463.23" y="-492.8" font-family="Times,serif" font-size="14.00" style="">computeReleasableAmount</text>
</g>
<!-- MINVestingBase.release&#45;&gt;MINVestingBase.computeReleasableAmount -->
<g id="edge1" class="edge" data-name="MINVestingBase.release-&gt;MINVestingBase.computeReleasableAmount">

<path fill="none" stroke="#1bc6a6" stroke-width="2" d="M201.84,-497C234.81,-497 284.47,-497 331.61,-497" style=""/>
<polygon fill="#1bc6a6" stroke="#1bc6a6" stroke-width="2" points="331.47,-500.5 341.47,-497 331.47,-493.5 331.47,-500.5" style=""/>
</g>
<!-- SafeERC20.safeTransfer -->
<g id="node14" class="node" pointer-events="visible" data-name="SafeERC20.safeTransfer">

<ellipse fill="#edad56" stroke="#edad56" stroke-width="3" cx="463.23" cy="-34" rx="59.08" ry="18" style=""/>
<text text-anchor="middle" x="463.23" y="-29.8" font-family="Times,serif" font-size="14.00" style="">safeTransfer</text>
</g>
<!-- MINVestingBase.release&#45;&gt;SafeERC20.safeTransfer -->
<g id="edge2" class="edge" data-name="MINVestingBase.release-&gt;SafeERC20.safeTransfer">

<path fill="none" stroke="white" stroke-width="2" d="M200.66,-501.42C234.18,-503.16 282.37,-499.62 309.46,-470 366.86,-407.25 296.57,-158.59 345.46,-89 358.7,-70.15 380.14,-57.57 401.06,-49.26" style=""/>
<polygon fill="white" stroke="white" stroke-width="2" points="402.19,-52.57 410.41,-45.88 399.81,-45.99 402.19,-52.57" style=""/>
</g>
<!-- MINVestingBase.getCurrentTime -->
<g id="node13" class="node" pointer-events="visible" data-name="MINVestingBase.getCurrentTime">

<ellipse fill="#edad56" stroke="#edad56" stroke-width="3" cx="689.71" cy="-497" rx="72.93" ry="18" style=""/>
<text text-anchor="middle" x="689.71" y="-492.8" font-family="Times,serif" font-size="14.00" style="">getCurrentTime</text>
</g>
<!-- MINVestingBase.computeReleasableAmount&#45;&gt;MINVestingBase.getCurrentTime -->
<g id="edge3" class="edge" data-name="MINVestingBase.computeReleasableAmount-&gt;MINVestingBase.getCurrentTime">

<path fill="none" stroke="#1bc6a6" stroke-width="2" d="M582.05,-497C588.96,-497 595.83,-497 602.57,-497" style=""/>
<polygon fill="#1bc6a6" stroke="#1bc6a6" stroke-width="2" points="602.31,-500.5 612.31,-497 602.31,-493.5 602.31,-500.5" style=""/>
</g>
<!-- MINVestingBase.getTotalReleasedAmount -->
<g id="node6" class="node" pointer-events="visible" data-name="MINVestingBase.getTotalReleasedAmount">

<ellipse fill="#ff9797" stroke="#ff9797" stroke-width="3" cx="162.73" cy="-443" rx="109.95" ry="18" style=""/>
<text text-anchor="middle" x="162.73" y="-438.8" font-family="Times,serif" font-size="14.00" style="">getTotalReleasedAmount</text>
</g>
<!-- MINVestingBase.getTotalReservedAmount -->
<g id="node7" class="node" pointer-events="visible" data-name="MINVestingBase.getTotalReservedAmount">

<ellipse fill="#ff9797" stroke="#ff9797" stroke-width="3" cx="162.73" cy="-389" rx="110.6" ry="18" style=""/>
<text text-anchor="middle" x="162.73" y="-384.8" font-family="Times,serif" font-size="14.00" style="">getTotalReservedAmount</text>
</g>
<!-- MINVestingBase.getToken -->
<g id="node8" class="node" pointer-events="visible" data-name="MINVestingBase.getToken">

<ellipse fill="#ff9797" stroke="#ff9797" stroke-width="3" cx="162.73" cy="-335" rx="47.51" ry="18" style=""/>
<text text-anchor="middle" x="162.73" y="-330.8" font-family="Times,serif" font-size="14.00" style="">getToken</text>
</g>
<!-- MINVestingBase.getVestingSchedule -->
<g id="node9" class="node" pointer-events="visible" data-name="MINVestingBase.getVestingSchedule">

<ellipse fill="#ff9797" stroke="#ff9797" stroke-width="3" cx="162.73" cy="-281" rx="88.05" ry="18" style=""/>
<text text-anchor="middle" x="162.73" y="-276.8" font-family="Times,serif" font-size="14.00" style="">getVestingSchedule</text>
</g>
<!-- MINVestingBase._setVestingSchedule -->
<g id="node10" class="node" pointer-events="visible" data-name="MINVestingBase._setVestingSchedule">

<ellipse fill="#f2c383" stroke="#f2c383" stroke-width="3" cx="162.73" cy="-227" rx="92.06" ry="18" style=""/>
<text text-anchor="middle" x="162.73" y="-222.8" font-family="Times,serif" font-size="14.00" style="">_setVestingSchedule</text>
</g>
<!-- MINVestingBase._removeVestingSchedule -->
<g id="node11" class="node" pointer-events="visible" data-name="MINVestingBase._removeVestingSchedule">

<ellipse fill="#f2c383" stroke="#f2c383" stroke-width="3" cx="162.73" cy="-173" rx="110.02" ry="18" style=""/>
<text text-anchor="middle" x="162.73" y="-168.8" font-family="Times,serif" font-size="14.00" style="">_removeVestingSchedule</text>
</g>
<!-- MINVestingBase.addToTotalReservedAmount -->
<g id="node12" class="node" pointer-events="visible" data-name="MINVestingBase.addToTotalReservedAmount">

<ellipse fill="#f2c383" stroke="#f2c383" stroke-width="3" cx="162.73" cy="-119" rx="123.84" ry="18" style=""/>
<text text-anchor="middle" x="162.73" y="-114.8" font-family="Times,serif" font-size="14.00" style="">addToTotalReservedAmount</text>
</g>
<!-- key -->
<g id="node15" class="node" pointer-events="visible" data-name="key">

<polygon fill="#edad56" stroke="none" stroke-width="3" points="227.73,-822 97.73,-822 97.73,-734 227.73,-734 227.73,-822" style=""/>
<text text-anchor="start" x="147.37" y="-803.4" font-family="Times,serif" font-size="14.00" style="">Internal Call</text>
<text text-anchor="start" x="143.48" y="-783.4" font-family="Times,serif" font-size="14.00" style="">External Call</text>
<text text-anchor="start" x="120.93" y="-763.4" font-family="Times,serif" font-size="14.00" style="">Defined Contract</text>
<text text-anchor="start" x="107.33" y="-743.4" font-family="Times,serif" font-size="14.00" style="">Undefined Contract</text>
</g>
<!-- key2 -->
<g id="node16" class="node" pointer-events="visible" data-name="key2">

<polygon fill="#edad56" stroke="none" stroke-width="3" points="490.23,-822 436.23,-822 436.23,-734 490.23,-734 490.23,-822" style=""/>
<text text-anchor="start" x="453.23" y="-803.4" font-family="Times,serif" font-size="14.00" style="">   </text>
<text text-anchor="start" x="453.23" y="-783.4" font-family="Times,serif" font-size="14.00" style="">   </text>
<polygon fill="#445773" stroke="none" points="451.23,-758 451.23,-778 476.23,-778 476.23,-758 451.23,-758" style=""/>
<text text-anchor="start" x="453.23" y="-763.4" font-family="Times,serif" font-size="14.00" style="">   </text>
<polygon fill="none" stroke="#e8726d" points="453.23,-740 453.23,-756 474.23,-756 474.23,-740 453.23,-740" style=""/>
</g>
<!-- key&#45;&gt;key2 -->
<g id="edge4" class="edge" data-name="key-&gt;key2">

<path fill="none" stroke="#1bc6a6" stroke-width="2" d="M220.73,-808C318.24,-808 345.84,-808 437.21,-808" style=""/>
<polygon fill="#1bc6a6" stroke="#1bc6a6" stroke-width="2" points="437.2,-811.5 447.2,-808 437.2,-804.5 437.2,-811.5" style=""/>
</g>
<!-- key&#45;&gt;key2 -->
<g id="edge5" class="edge" data-name="key-&gt;key2">

<path fill="none" stroke="white" stroke-width="2" d="M220.73,-788C318.24,-788 345.84,-788 437.21,-788" style=""/>
<polygon fill="white" stroke="white" stroke-width="2" points="437.2,-791.5 447.2,-788 437.2,-784.5 437.2,-791.5" style=""/>
</g>
</g>
</svg>